<?xml version="1.0" encoding="UTF-8" standalone="no"?>
<!-- Uploaded to: SVG Repo, www.svgrepo.com, Generator: SVG Repo Mixer Tools -->

<svg
   height="800px"
   width="800px"
   version="1.1"
   id="Layer_1"
   viewBox="0 0 491.52 491.52"
   xml:space="preserve"
   sodipodi:docname="brain-svgrepo-com.svg"
   inkscape:version="1.2.2 (b0a8486541, 2022-12-01)"
   xmlns:inkscape="http://www.inkscape.org/namespaces/inkscape"
   xmlns:sodipodi="http://sodipodi.sourceforge.net/DTD/sodipodi-0.dtd"
   xmlns="http://www.w3.org/2000/svg"
   xmlns:svg="http://www.w3.org/2000/svg"><defs
   id="defs13"><linearGradient
     id="linearGradient6416"
     inkscape:swatch="solid"><stop
       style="stop-color:#232323;stop-opacity:1;"
       offset="0"
       id="stop6414" /></linearGradient></defs><sodipodi:namedview
   id="namedview11"
   pagecolor="#ffffff"
   bordercolor="#000000"
   borderopacity="0.25"
   inkscape:showpageshadow="2"
   inkscape:pageopacity="0.0"
   inkscape:pagecheckerboard="0"
   inkscape:deskcolor="#d1d1d1"
   showgrid="false"
   inkscape:zoom="1.06375"
   inkscape:cx="503.87779"
   inkscape:cy="455.46416"
   inkscape:window-width="1864"
   inkscape:window-height="1053"
   inkscape:window-x="56"
   inkscape:window-y="0"
   inkscape:window-maximized="1"
   inkscape:current-layer="Layer_1" />
<path
   style="fill:#241c1c"
   d="M491.52,210.031c0-23.067-11.433-44.405-30.339-57.469c2.094-5.569,3.186-11.485,3.186-17.464  c0-24.715-18.224-45.33-42.154-49.536c-1.234-25.056-21.188-45.356-46.379-47.642c-7.51-15.745-23.904-26.269-41.932-26.269  c-4.633,0-9.241,0.69-13.634,2.016C313.416,5.176,302.897,0,291.607,0c-20.168,0-36.571,16.128-36.571,35.948v128.57  c0,15.648,7.092,30.414,18.818,40.468c-11.841,10.648-18.818,25.806-18.818,42.021v79.122c0,9.591,2.415,18.885,7.031,27.212  c-4.616,8.003-7.031,17-7.031,26.347v61.51c0,27.744,22.963,50.322,51.181,50.322c18.463,0,35.088-9.635,44.134-24.812  c6.479,2.836,13.501,4.303,20.735,4.303c27.898,0,50.666-22.063,51.18-49.37c28.431-8.213,48.314-33.819,48.314-63.666  c0-10.385-2.432-20.456-7.092-29.611c17.301-10.909,28.032-29.795,28.032-50.479c0-11.519-3.418-22.83-9.72-32.465  C488.182,234.694,491.52,222.58,491.52,210.031z"
   id="path2" />
<path
   style="fill:#ececec"
   d="M454.96,312.346c-12.507-21.31-37.536-25.653-50.619-26.343  c-2.577-10.647-8.589-20.276-17.394-27.405c-3.888-3.142-9.613-2.601-12.791,1.213c-3.195,3.804-2.645,9.443,1.234,12.576  c7.758,6.283,12.205,15.543,12.205,25.396c0,18.126-14.992,32.867-33.42,32.867c-18.427,0-33.419-14.74-33.419-32.867  c0-7.873,2.876-15.482,8.086-21.443c0.117-0.135,0.147-0.306,0.256-0.446c2.508-0.368,5.015-0.918,7.484-1.822  c19.102-7.008,28.858-27.989,21.738-46.778c-1.766-4.626-6.986-6.939-11.699-5.254c-4.704,1.728-7.092,6.877-5.343,11.502  c3.621,9.548-1.332,20.221-11.051,23.781c-9.728,3.561-20.576-1.317-24.197-10.865c-1.749-4.626-6.995-6.973-11.69-5.245  c-4.704,1.72-7.092,6.869-5.335,11.494c3.669,9.671,11.136,16.822,20.09,20.61c-4.181,7.455-6.518,15.84-6.518,24.467  c0,27.979,23.15,50.74,51.598,50.74c26.299,0,48.028-19.466,51.169-44.509c11.199,0.916,30.858,5.163,36.796,23.571  c0.266,0.827,0.686,1.556,1.152,2.241c0.044,0.065,0.044,0.148,0.091,0.212c5.903,8.212,9.019,17.874,9.019,27.935  c0,20.315-12.66,37.851-31.172,45.02c-2.911-17.485-14.6-28.854-15.207-29.424c-3.64-3.404-9.383-3.247-12.853,0.332  c-3.453,3.578-3.302,9.241,0.337,12.636c0.124,0.105,11.833,11.521,10.173,27.177c-0.043,0.389,0.099,0.738,0.108,1.12  c0.008,0.384-0.115,0.742-0.056,1.132c0.24,1.544,0.364,3.115,0.364,4.722c0,17.891-14.806,32.448-33.01,32.448  c-4.423,0-8.684-0.945-12.68-2.588c4.043-10.608,4.758-26.561-7.7-43.597c6.018-9.841,5.891-22.682-1.367-32.561  c-2.947-3.997-8.637-4.905-12.693-2.008c-4.065,2.89-4.979,8.484-2.041,12.481c3.835,5.21,2.636,12.524-2.672,16.294  c-5.29,3.769-12.737,2.6-16.581-2.618c-2.956-4.006-8.636-4.896-12.693-2.008c-4.074,2.898-4.981,8.483-2.042,12.48  c5.876,7.986,15.081,12.227,24.401,12.227c4.037,0,8.074-0.875,11.895-2.507c11.355,16.661,3.28,28.358,2.148,29.833  c-0.506,0.633-0.755,1.359-1.061,2.066c-0.109,0.246-0.335,0.416-0.422,0.674c-4.447,13.362-17.051,22.342-31.36,22.342  c-18.196,0-33.002-14.557-33.002-32.448v-61.51c0-4.384,0.883-8.616,2.423-12.615c8.095,5.255,21.108,11.254,39.021,11.254  c0.852,0,1.713-0.009,2.584-0.044c5.023-0.157,8.955-4.285,8.787-9.216c-0.16-4.835-4.19-8.648-9.072-8.648  c-0.107,0-0.205,0-0.303,0.008c-0.684,0.017-1.349,0.026-2.006,0.026c-20.828,0-32.516-10.447-34.662-12.558  c-4.407-6.454-6.772-13.953-6.772-21.766v-79.122c0-14.391,8.016-27.587,20.912-34.419c0.216-0.114,0.378-0.288,0.58-0.419  c0.118-0.072,0.255-0.079,0.37-0.158c1.98-1.369,19.954-12.872,38.932,3.02c1.713,1.432,3.808,2.13,5.894,2.13  c2.566,0,5.122-1.064,6.924-3.142c3.249-3.752,2.796-9.399-1.03-12.601c-20.941-17.525-43.485-13.325-56.078-7.023  c-10.14-6.529-16.504-17.795-16.504-29.876V35.948c0-9.967,8.246-18.074,18.392-18.074c6.362,0,12.095,3.401,15.429,8.646  c-1.611,7.278-5.437,17.362-11.009,20.607c-4.322,2.514-5.743,7.995-3.187,12.245c1.696,2.819,4.722,4.381,7.83,4.381  c1.571,0,3.169-0.401,4.624-1.248c12.083-7.039,17.287-22.819,19.271-31.207c2.997-1.047,6.119-1.773,9.338-1.773  c12.03,0,22.81,7.74,26.6,18.897c0.108,4.941-0.206,24.73-11.413,37.061c-4.298,4.745-9.748,7.798-16.437,9.337  c-2.033-9.323-8.721-17.449-18.527-20.813c-4.696-1.623-9.914,0.829-11.575,5.499c-1.651,4.66,0.852,9.748,5.593,11.38  c5.476,1.876,8.379,7.784,6.479,13.161c-1.908,5.393-7.908,8.264-13.385,6.371c-4.766-1.615-9.923,0.837-11.575,5.498  c-1.651,4.66,0.852,9.757,5.593,11.38c3.115,1.065,6.284,1.571,9.408,1.571c10.724,0,20.787-5.991,25.68-15.711  c13.221-1.606,24.197-6.784,32.399-15.855c11.594-12.837,14.844-29.997,15.68-40.853c14.673,3.296,25.674,16.172,25.674,31.576  c0,1.518-0.124,3.028-0.328,4.494c-0.088,0.651,0.131,1.277,0.207,1.921c-0.63,5.629-3.118,15.303-7.344,17.987  c-4.216,2.679-5.423,8.211-2.698,12.357c1.74,2.645,4.659,4.084,7.643,4.084c1.686,0,3.399-0.462,4.926-1.431  c8.561-5.437,12.504-16.03,14.304-23.826c14.517,3.403,25.382,16.186,25.382,31.488c0,2.725-0.377,5.427-1.062,8.049  c-15.636-7.021-41.036-10.661-67.377,6.381c-7.687-4.921-16.679-7.398-25.961-6.819c-11.362,0.743-21.756,5.786-29.257,14.217  c-3.302,3.709-2.919,9.355,0.862,12.611c3.763,3.238,9.497,2.88,12.826-0.846c4.296-4.827,10.253-7.724,16.768-8.143  c6.489-0.402,12.818,1.667,17.735,5.909c10.146,8.727,11.167,23.948,2.282,33.932c-3.302,3.709-2.921,9.355,0.861,12.611  c1.722,1.484,3.852,2.208,5.983,2.208c2.53,0,5.042-1.03,6.844-3.054c12.595-14.154,13.565-34.268,4.037-49.505  c29.078-16.769,52.223-0.347,53.304,0.449c0.207,0.153,0.453,0.183,0.669,0.317c0.194,0.123,0.323,0.324,0.53,0.433  C462.564,173,473.34,190.7,473.34,210.031c0,7.007-1.546,13.779-4.245,20.125c-6.821-5.573-14.051-7.702-19.604-8.414  c-3.342-14.177-13.932-25.927-28.424-30.493c-4.732-1.484-9.897,1.091-11.424,5.786c-1.535,4.695,1.101,9.731,5.884,11.232  c9.943,3.133,16.768,12.148,16.981,22.42c0.187,8.64-4.411,16.756-11.975,21.181c-4.314,2.521-5.734,8.003-3.169,12.244  c1.696,2.81,4.722,4.372,7.82,4.372c1.58,0,3.178-0.402,4.633-1.257c10.323-6.033,17.391-16.023,19.856-27.295  c4.07,1.061,9.207,3.722,13.368,10.425c0.137,0.223,0.33,0.386,0.486,0.591c0.09,0.123,0.126,0.268,0.223,0.386  c6.267,7.585,9.586,16.765,9.586,26.548C473.34,291.853,466.295,304.573,454.96,312.346z"
   id="path4" />
<path
   style="fill:#241c1c"
   d="M9.72,245.42C3.418,255.054,0,266.365,0,277.884c0,20.685,10.731,39.57,28.032,50.479  c-4.661,9.155-7.092,19.226-7.092,29.611c0,29.848,19.883,55.453,48.313,63.666c0.515,27.307,23.283,49.37,51.181,49.37  c7.235,0,14.256-1.467,20.735-4.303c9.046,15.177,25.67,24.812,44.134,24.812c28.218,0,51.18-22.578,51.18-50.322v-61.51  c0-9.347-2.415-18.344-7.03-26.347c4.616-8.327,7.03-17.621,7.03-27.212v-79.122c0-16.215-6.977-31.374-18.818-42.021  c11.726-10.054,18.818-24.82,18.818-40.468V35.948C236.483,16.128,220.08,0,199.913,0c-11.29,0-21.809,5.176-28.662,13.667  c-4.394-1.326-9-2.016-13.634-2.016c-18.028,0-34.422,10.525-41.932,26.269c-25.19,2.286-45.145,22.586-46.379,47.642  c-23.93,4.206-42.153,24.821-42.153,49.536c0,5.978,1.092,11.895,3.186,17.464C11.433,165.626,0,186.964,0,210.031  C0,222.58,3.338,234.694,9.72,245.42z"
   id="path6" />
<path
   style="fill:#ff0000"
   d="M18.179,277.884c0-9.783,3.319-18.963,9.586-26.548c0.098-0.118,0.133-0.263,0.223-0.386  c0.155-0.206,0.349-0.368,0.486-0.591c4.161-6.702,9.297-9.364,13.369-10.425c2.465,11.272,9.532,21.262,19.855,27.295  c1.456,0.856,3.054,1.257,4.634,1.257c3.098,0,6.124-1.562,7.821-4.372c2.564-4.242,1.144-9.723-3.169-12.244  c-7.563-4.425-12.161-12.541-11.975-21.181c0.213-10.272,7.039-19.287,16.98-22.42c4.784-1.501,7.42-6.537,5.885-11.232  c-1.528-4.695-6.693-7.27-11.424-5.786c-14.493,4.566-25.083,16.315-28.424,30.493c-5.552,0.712-12.782,2.841-19.603,8.414  c-2.699-6.346-4.245-13.118-4.245-20.125c0-19.331,10.776-37.031,28.111-46.185c0.207-0.109,0.335-0.31,0.53-0.433  c0.215-0.134,0.462-0.164,0.668-0.317c1.081-0.796,24.226-17.218,53.305-0.449c-9.529,15.237-8.559,35.351,4.037,49.505  c1.802,2.024,4.314,3.054,6.844,3.054c2.13,0,4.261-0.724,5.982-2.208c3.782-3.256,4.164-8.902,0.862-12.611  c-8.885-9.984-7.864-25.205,2.282-33.932c4.917-4.242,11.246-6.311,17.735-5.909c6.515,0.419,12.472,3.316,16.767,8.143  c3.329,3.726,9.063,4.084,12.826,0.846c3.781-3.256,4.163-8.902,0.861-12.611c-7.5-8.431-17.894-13.475-29.257-14.216  c-9.281-0.58-18.274,1.898-25.96,6.818c-26.341-17.042-51.741-13.402-67.377-6.381c-0.686-2.622-1.063-5.324-1.063-8.049  c0-15.302,10.865-28.085,25.382-31.488c1.799,7.796,5.742,18.389,14.304,23.826c1.527,0.969,3.239,1.431,4.926,1.431  c2.983,0,5.903-1.439,7.642-4.084c2.725-4.146,1.518-9.678-2.698-12.357c-4.225-2.684-6.713-12.358-7.343-17.987  c0.076-0.644,0.295-1.27,0.207-1.921c-0.204-1.465-0.328-2.975-0.328-4.494c0-15.405,11.002-28.28,25.674-31.576  c0.836,10.856,4.086,28.016,15.68,40.853c8.201,9.072,19.177,14.249,32.398,15.855c4.893,9.72,14.957,15.711,25.68,15.711  c3.124,0,6.294-0.505,9.409-1.571c4.74-1.624,7.243-6.72,5.593-11.38c-1.651-4.661-6.809-7.113-11.575-5.498  c-5.477,1.894-11.478-0.978-13.385-6.371c-1.9-5.377,1.002-11.285,6.479-13.161c4.74-1.632,7.243-6.72,5.593-11.38  c-1.66-4.669-6.88-7.122-11.575-5.498c-9.807,3.363-16.495,11.489-18.528,20.812c-6.689-1.538-12.137-4.591-16.436-9.337  c-11.207-12.332-11.522-32.12-11.413-37.061c3.79-11.157,14.57-18.897,26.6-18.897c3.22,0,6.341,0.727,9.338,1.773  c1.984,8.388,7.188,24.168,19.271,31.207c1.455,0.847,3.053,1.248,4.624,1.248c3.107,0,6.134-1.562,7.829-4.381  c2.556-4.25,1.136-9.731-3.186-12.245c-5.573-3.245-9.398-13.329-11.009-20.607c3.333-5.245,9.067-8.646,15.429-8.646  c10.146,0,18.392,8.107,18.392,18.074v128.57c0,12.081-6.364,23.347-16.504,29.876c-12.593-6.301-35.137-10.502-56.078,7.023  c-3.826,3.203-4.279,8.849-1.03,12.601c1.802,2.077,4.358,3.142,6.924,3.142c2.086,0,4.18-0.697,5.894-2.13  c18.978-15.892,36.952-4.389,38.932-3.02c0.115,0.079,0.253,0.086,0.369,0.158c0.202,0.131,0.365,0.305,0.58,0.419  c12.897,6.833,20.913,20.029,20.913,34.419v79.122c0,7.813-2.366,15.312-6.772,21.766c-2.146,2.111-13.834,12.558-34.662,12.558  c-0.657,0-1.322-0.009-2.007-0.026c-0.097-0.008-0.195-0.008-0.302-0.008c-4.882,0-8.912,3.813-9.072,8.648  c-0.168,4.931,3.764,9.059,8.787,9.216c0.87,0.035,1.731,0.044,2.584,0.044c17.912,0,30.925-6,39.021-11.254  c1.54,3.999,2.423,8.231,2.423,12.615v61.51c0,17.891-14.805,32.448-33.002,32.448c-14.309,0-26.914-8.98-31.361-22.342  c-0.086-0.257-0.313-0.428-0.422-0.674c-0.306-0.707-0.554-1.433-1.06-2.066c-1.132-1.475-9.208-13.172,2.147-29.833  c3.822,1.632,7.858,2.507,11.895,2.507c9.321,0,18.525-4.241,24.401-12.227c2.938-3.997,2.032-9.582-2.042-12.48  c-4.056-2.888-9.736-1.998-12.693,2.008c-3.844,5.219-11.29,6.387-16.581,2.618c-5.308-3.77-6.506-11.084-2.671-16.294  c2.938-3.997,2.024-9.591-2.042-12.481c-4.057-2.897-9.746-1.989-12.693,2.008c-7.258,9.879-7.385,22.72-1.367,32.561  c-12.458,17.037-11.743,32.989-7.7,43.597c-3.997,1.643-8.258,2.588-12.681,2.588c-18.205,0-33.01-14.557-33.01-32.448  c0-1.607,0.124-3.177,0.363-4.722c0.06-0.39-0.065-0.748-0.055-1.132c0.009-0.382,0.151-0.731,0.108-1.12  c-1.66-15.656,10.049-27.072,10.172-27.177c3.64-3.395,3.79-9.058,0.337-12.636c-3.47-3.579-9.213-3.736-12.852-0.332  c-0.608,0.569-12.296,11.939-15.208,29.424c-18.511-7.169-31.171-24.705-31.171-45.02c0-10.062,3.116-19.723,9.019-27.935  c0.046-0.064,0.046-0.147,0.09-0.212c0.467-0.685,0.886-1.414,1.152-2.241c5.939-18.408,25.597-22.655,36.797-23.571  c3.14,25.043,24.869,44.509,51.168,44.509c28.448,0,51.598-22.761,51.598-50.74c0-8.627-2.337-17.012-6.517-24.467  c8.953-3.788,16.421-10.939,20.089-20.61c1.757-4.625-0.631-9.774-5.335-11.494c-4.695-1.727-9.941,0.62-11.69,5.245  c-3.621,9.548-14.468,14.426-24.197,10.865c-9.719-3.56-14.672-14.233-11.051-23.781c1.749-4.626-0.639-9.774-5.344-11.502  c-4.713-1.685-9.932,0.628-11.699,5.254c-7.119,18.789,2.637,39.77,21.739,46.778c2.469,0.905,4.977,1.455,7.484,1.822  c0.109,0.14,0.137,0.311,0.256,0.446c5.21,5.961,8.086,13.571,8.086,21.443c0,18.126-14.993,32.867-33.419,32.867  c-18.427,0-33.419-14.74-33.419-32.867c0-9.853,4.447-19.113,12.205-25.396c3.879-3.133,4.429-8.772,1.234-12.576  c-3.178-3.815-8.904-4.355-12.791-1.213c-8.806,7.129-14.818,16.759-17.394,27.405c-13.084,0.69-38.113,5.033-50.62,26.343  C25.223,304.573,18.179,291.853,18.179,277.884z"
   id="path8" />
<path
   style="opacity:1;fill:#241c1c;fill-opacity:1;stroke:#241c1c;stroke-width:12.288;stroke-linecap:round;stroke-linejoin:round;stroke-dasharray:none;stroke-opacity:1;paint-order:stroke fill markers"
   d="m 236.483,35.948 c 0,0 5.69293,-1.106235 9.277,-1.013824 2.69876,0.06958 9.276,1.013824 9.276,1.013824"
   id="path6981"
   sodipodi:nodetypes="csc" /><path
   style="fill:#241c1c;fill-opacity:1;stroke:#241c1c;stroke-width:12.288;stroke-linecap:round;stroke-linejoin:round;stroke-dasharray:none;stroke-opacity:1;paint-order:stroke fill markers"
   d="m 236.62359,443.92543 c 0,0 5.69294,1.10624 9.27701,1.01382 2.69876,-0.0696 9.27599,-1.01382 9.27599,-1.01382"
   id="path6981-3"
   sodipodi:nodetypes="csc" /><path
   style="opacity:1;fill:#241c1c;fill-opacity:1;stroke:#241c1c;stroke-width:26.5892;stroke-linecap:round;stroke-linejoin:round;stroke-dasharray:none;stroke-opacity:1;paint-order:stroke fill markers"
   d="M 385.54353,170.02376 V 68.837577 l 6.34396,-0.751348 c 3.48918,-0.413242 10.07001,-0.413482 14.62407,-5.35e-4 l 8.2801,0.750814 V 170.02322 271.20993 H 400.1676 385.54353 Z"
   id="path7139"
   transform="scale(0.6144)" /><path
   style="opacity:1;fill:#241c1c;fill-opacity:1;stroke:#241c1c;stroke-width:26.5892;stroke-linecap:round;stroke-linejoin:round;stroke-dasharray:none;stroke-opacity:1;paint-order:stroke fill markers"
   d="m 388.53482,712.3173 -2.99129,-0.57615 -0.0231,-51.42413 c -0.0251,-55.82898 -0.64496,-62.30539 -7.40554,-77.36996 l -3.57017,-7.95541 3.40499,-7.6444 c 7.15838,-16.07096 7.5938,-21.82316 7.5938,-100.31822 v -72.17927 h 14.62407 14.62406 v 73.90475 c 0,69.14167 0.16855,74.56378 2.61525,84.1303 1.43839,5.62404 3.79814,12.89963 5.24389,16.16799 l 2.62863,5.94246 -3.30107,7.4643 c -6.70646,15.1645 -7.14593,19.85257 -7.16705,76.45428 l -0.0197,52.67987 -4.15456,0.83091 c -4.47058,0.89412 -17.22444,0.83218 -22.10228,-0.10728 z"
   id="path7141"
   transform="scale(0.6144)" /><path
   style="opacity:1;fill:#ececec;fill-opacity:1;stroke:#241c1c;stroke-width:12.288;stroke-linecap:round;stroke-linejoin:round;stroke-dasharray:none;stroke-opacity:1;paint-order:stroke fill markers"
   id="path693"
   sodipodi:type="arc"
   sodipodi:cx="245.76004"
   sodipodi:cy="204.78758"
   sodipodi:rx="29.736465"
   sodipodi:ry="29.278538"
   sodipodi:start="0"
   sodipodi:end="6.2368946"
   sodipodi:open="true"
   sodipodi:arc-type="arc"
   d="m 275.49651,204.78758 a 29.736465,29.278538 0 0 1 -29.39235,29.27658 29.736465,29.278538 0 0 1 -30.07262,-28.59898 29.736465,29.278538 0 0 1 28.69632,-29.93849 29.736465,29.278538 0 0 1 30.73679,27.90605" /></svg>
